# Blender v3.0.0 OBJ File: 'cartoon_mushrooms.blend'
# www.blender.org
mtllib Mushroom_1.mtl
o Mushroom_1
v 0.001230 0.004313 -0.014621
v 0.003351 0.059500 -0.009788
v 0.008031 0.003651 -0.011477
v 0.009882 0.059639 -0.007083
v 0.011547 0.002729 -0.005226
v 0.013804 0.059794 -0.001127
v 0.010428 0.001984 0.001725
v 0.013451 0.060012 0.005475
v 0.005108 0.001615 0.006733
v 0.008803 0.060151 0.010039
v -0.002373 0.001627 0.007919
v 0.001592 0.060000 0.011019
v -0.009157 0.002006 0.004828
v -0.005060 0.059678 0.008262
v -0.012660 0.002735 -0.001391
v -0.008522 0.059405 0.002817
v -0.011551 0.003638 -0.008376
v -0.007773 0.059296 -0.003426
v -0.006249 0.004303 -0.013437
v -0.003297 0.059356 -0.008272
v -0.002780 0.022511 -0.015151
v 0.004823 0.022095 -0.014132
v 0.010314 0.021092 -0.009201
v 0.011596 0.020109 -0.002275
v 0.008181 0.019510 0.003981
v 0.001389 0.019348 0.007221
v -0.006181 0.019559 0.006258
v -0.011646 0.020162 0.001406
v -0.012939 0.021087 -0.005521
v -0.009562 0.022043 -0.011858
v 0.003370 0.014375 -0.015564
v 0.007142 0.013949 -0.013836
v 0.010152 0.013413 -0.011117
v 0.012103 0.012852 -0.007678
v 0.012804 0.012333 -0.003861
v 0.012187 0.011906 -0.000041
v 0.010312 0.011593 0.003409
v 0.007365 0.011399 0.006157
v 0.003637 0.011315 0.007943
v -0.000508 0.011328 0.008600
v -0.004662 0.011435 0.008063
v -0.008421 0.011643 0.006378
v -0.011418 0.011957 0.003700
v -0.013361 0.012376 0.000286
v -0.014061 0.012879 -0.003533
v -0.013450 0.013424 -0.007378
v -0.011588 0.013947 -0.010869
v -0.008655 0.014369 -0.013660
v -0.004935 0.014609 -0.015472
v -0.000792 0.014612 -0.016128
v -0.001720 -0.002804 -0.009760
v 0.002721 -0.002981 -0.009147
v 0.005927 -0.003425 -0.006214
v 0.006670 -0.003919 -0.002089
v 0.004667 -0.004274 0.001652
v 0.000685 -0.004397 0.003588
v -0.003753 -0.004270 0.002986
v -0.006953 -0.003919 0.000069
v -0.007696 -0.003432 -0.004057
v -0.005698 -0.002989 -0.007814
v -0.000477 -0.007512 -0.002881
v -0.032072 0.057897 -0.046440
v -0.042919 0.058253 -0.033728
v -0.050109 0.058551 -0.017717
v -0.053708 0.058643 0.000020
v -0.052649 0.058516 0.017751
v -0.046025 0.058279 0.033744
v -0.033360 0.058479 0.045819
v -0.016301 0.059285 0.052225
v 0.002850 0.060083 0.053185
v 0.021652 0.060262 0.049823
v 0.037412 0.059699 0.042906
v 0.049107 0.058712 0.032389
v 0.056373 0.057791 0.017471
v 0.058736 0.057573 -0.002244
v 0.055366 0.057836 -0.023221
v 0.046666 0.058092 -0.040958
v 0.033758 0.058190 -0.052559
v 0.017726 0.058169 -0.057962
v -0.000133 0.057899 -0.058286
v -0.017587 0.057687 -0.054603
v -0.029214 0.069512 -0.041968
v -0.039063 0.069742 -0.030487
v -0.045593 0.070022 -0.016025
v -0.048730 0.070270 0.000001
v -0.047644 0.070423 0.016022
v -0.041533 0.070499 0.030380
v -0.029846 0.071035 0.040825
v -0.013925 0.071959 0.046432
v 0.004057 0.072647 0.047511
v 0.021466 0.072716 0.044676
v 0.035836 0.072053 0.038695
v 0.046382 0.070989 0.029451
v 0.052768 0.069933 0.015853
v 0.054480 0.069605 -0.002021
v 0.051080 0.070008 -0.021603
v 0.042802 0.070436 -0.038161
v 0.030800 0.070605 -0.048723
v 0.015988 0.070401 -0.053433
v -0.000403 0.069868 -0.053336
v -0.016150 0.069457 -0.049405
v -0.012046 0.076912 -0.016382
v -0.016689 0.076990 -0.011467
v -0.019647 0.077233 -0.005488
v -0.020619 0.077547 0.001153
v -0.019402 0.077937 0.007680
v -0.015933 0.078393 0.013437
v -0.010346 0.078898 0.017909
v -0.003075 0.079425 0.020760
v 0.004922 0.079843 0.021831
v 0.012627 0.080020 0.021117
v 0.019218 0.079882 0.018522
v 0.024071 0.079476 0.014090
v 0.026752 0.078963 0.008065
v 0.027024 0.078535 0.000893
v 0.024961 0.078293 -0.006638
v 0.020882 0.078181 -0.013480
v 0.015178 0.077977 -0.018529
v 0.008282 0.077645 -0.021254
v 0.000928 0.077274 -0.021641
v -0.006033 0.077013 -0.019903
v 0.003040 0.081241 0.002241
v 0.038188 0.064160 0.043411
v 0.017959 0.062589 -0.058883
v -0.050844 0.062855 -0.017959
v 0.022222 0.064764 0.050355
v 0.034226 0.062620 -0.053503
v -0.043572 0.062550 -0.034187
v 0.003082 0.064585 0.053762
v 0.047338 0.062507 -0.041788
v -0.032582 0.062204 -0.047071
v -0.016432 0.063771 0.052813
v 0.056217 0.062218 -0.023691
v -0.000160 0.062274 -0.059126
v -0.017884 0.062016 -0.055343
v -0.033770 0.062927 0.046389
v 0.059695 0.061923 -0.002272
v -0.053414 0.062882 0.017990
v -0.046677 0.062682 0.034200
v 0.050010 0.063120 0.032835
v 0.057346 0.062150 0.017755
v -0.054496 0.062971 0.000018
vt 0.779591 0.616325
vt 0.759716 0.770625
vt 0.748657 0.616077
vt 0.730651 0.773611
vt 0.718221 0.614077
vt 0.701661 0.777848
vt 0.688396 0.611973
vt 0.675003 0.781736
vt 0.657759 0.610674
vt 0.648576 0.783304
vt 0.625360 0.610150
vt 0.618926 0.781676
vt 0.592855 0.610177
vt 0.589569 0.778290
vt 0.562266 0.611575
vt 0.563135 0.775266
vt 0.533225 0.614646
vt 0.537059 0.774407
vt 0.503918 0.619047
vt 0.810482 0.614487
vt 0.815145 0.772539
vt 0.787980 0.770027
vt 0.284676 0.763075
vt 0.460627 0.649238
vt 0.483284 0.716292
vt 0.671414 0.061311
vt 0.660234 0.095130
vt 0.635804 0.072030
vt 0.786484 0.584818
vt 0.770280 0.585758
vt 0.802875 0.582744
vt 0.511565 0.586569
vt 0.495569 0.587943
vt 0.526787 0.584653
vt 0.541432 0.582693
vt 0.555963 0.580830
vt 0.570671 0.579304
vt 0.585814 0.578114
vt 0.601443 0.577354
vt 0.617460 0.576840
vt 0.633471 0.576926
vt 0.649277 0.577382
vt 0.664567 0.578038
vt 0.679401 0.579116
vt 0.693937 0.580427
vt 0.708493 0.581992
vt 0.723326 0.583526
vt 0.738592 0.584867
vt 0.754256 0.585673
vt 0.758794 0.545683
vt 0.727960 0.545187
vt 0.698585 0.542941
vt 0.669997 0.540556
vt 0.640522 0.539092
vt 0.609980 0.539091
vt 0.579900 0.540607
vt 0.550804 0.543274
vt 0.521736 0.545975
vt 0.491669 0.546438
vt 0.789841 0.542747
vt 0.585855 0.056332
vt 0.595018 0.043459
vt 0.611024 0.065718
vt 0.592626 0.116539
vt 0.596066 0.083964
vt 0.611291 0.088671
vt 0.550623 0.060674
vt 0.561233 0.026299
vt 0.660181 0.026594
vt 0.636036 0.056629
vt 0.630482 0.116540
vt 0.626389 0.084123
vt 0.562278 0.094777
vt 0.586385 0.071718
vt 0.591184 0.004193
vt 0.610705 0.038426
vt 0.629479 0.004193
vt 0.626553 0.043595
vt 0.218971 0.810787
vt 0.246542 0.821767
vt 0.212498 0.988811
vt 0.138952 0.963072
vt 0.286675 0.792099
vt 0.478751 0.796739
vt 0.448826 0.878063
vt 0.214625 0.740660
vt 0.092880 0.605030
vt 0.150502 0.562547
vt 0.200851 0.787641
vt 0.072788 0.921243
vt 0.024969 0.864267
vt 0.272189 0.814858
vt 0.400972 0.943414
vt 0.345145 0.981866
vt 0.266897 0.740371
vt 0.414483 0.597944
vt 0.240241 0.732425
vt 0.214501 0.539091
vt 0.282310 0.539091
vt 0.199456 0.761341
vt 0.004193 0.795992
vt 0.012760 0.725913
vt 0.282394 0.995807
vt 0.044550 0.660822
vt 0.351691 0.560994
vt 0.452646 0.082515
vt 0.496989 0.139826
vt 0.462876 0.159183
vt 0.426828 0.111243
vt 0.180354 0.446335
vt 0.132707 0.408866
vt 0.207821 0.315581
vt 0.229484 0.331490
vt 0.025552 0.223259
vt 0.042199 0.151231
vt 0.079916 0.169267
vt 0.065685 0.229405
vt 0.522534 0.222869
vt 0.482996 0.228214
vt 0.085194 0.091304
vt 0.117804 0.120557
vt 0.308750 0.510204
vt 0.231407 0.506894
vt 0.236834 0.466528
vt 0.301899 0.470056
vt 0.521714 0.316044
vt 0.482021 0.307854
vt 0.151449 0.047664
vt 0.175775 0.086000
vt 0.164732 0.482580
vt 0.494876 0.397306
vt 0.459134 0.377629
vt 0.234553 0.025245
vt 0.246888 0.067918
vt 0.107500 0.438771
vt 0.447978 0.454760
vt 0.419099 0.426016
vt 0.320666 0.025637
vt 0.318687 0.067786
vt 0.061717 0.376239
vt 0.095617 0.356268
vt 0.385048 0.492451
vt 0.365946 0.456247
vt 0.394282 0.045836
vt 0.378854 0.083199
vt 0.032277 0.301352
vt 0.071550 0.294141
vt 0.347961 0.187446
vt 0.362875 0.208709
vt 0.275421 0.247530
vt 0.268928 0.170934
vt 0.238677 0.180369
vt 0.255505 0.340855
vt 0.212424 0.196417
vt 0.366623 0.266792
vt 0.369100 0.236198
vt 0.283889 0.342493
vt 0.193787 0.217633
vt 0.184098 0.242440
vt 0.355602 0.296186
vt 0.183826 0.268820
vt 0.337041 0.319878
vt 0.326161 0.173863
vt 0.192108 0.294199
vt 0.312222 0.335521
vt 0.299067 0.168397
vt 0.515945 0.130997
vt 0.542238 0.219940
vt 0.024280 0.143081
vt 0.070321 0.076782
vt 0.309942 0.530706
vt 0.227616 0.525913
vt 0.542173 0.318175
vt 0.141767 0.028689
vt 0.155557 0.500262
vt 0.513939 0.406010
vt 0.230264 0.004193
vt 0.093254 0.453184
vt 0.462745 0.471305
vt 0.321995 0.004193
vt 0.043940 0.386347
vt 0.392288 0.512177
vt 0.402166 0.025848
vt 0.012325 0.306400
vt 0.467870 0.066278
vt 0.004193 0.221759
vn -0.1638 0.1486 -0.9752
vn 0.0798 -0.7452 -0.6621
vn 0.4147 0.1222 -0.9017
vn 0.4230 -0.7659 -0.4842
vn 0.8660 0.0874 -0.4924
vn 0.5777 -0.8052 -0.1338
vn 0.9876 0.0507 0.1488
vn 0.4763 -0.8385 0.2646
vn 0.6872 0.0306 0.7259
vn 0.2414 -0.8195 0.5197
vn 0.1509 0.0412 0.9877
vn -0.0399 -0.7944 0.6060
vn -0.4195 0.0719 0.9049
vn -0.3620 -0.7899 0.4949
vn -0.8669 0.1102 0.4862
vn -0.6192 -0.7673 0.1669
vn -0.9789 0.1433 -0.1455
vn -0.6252 -0.7339 -0.2655
vn -0.6930 0.1578 -0.7034
vn -0.3410 -0.7308 -0.5913
vn 0.3313 -0.7536 -0.5678
vn 0.5222 -0.7565 -0.3937
vn 0.9068 -0.3720 -0.1981
vn 0.8342 -0.3623 0.4158
vn 0.6443 -0.7642 0.0294
vn -0.3044 -0.0102 -0.9525
vn -0.0076 -0.0097 -0.9999
vn -0.5674 -0.0115 -0.8234
vn -0.7982 -0.0079 -0.6023
vn -0.9471 -0.0051 -0.3209
vn -0.9999 0.0033 0.0144
vn -0.9401 0.0132 0.3407
vn -0.7771 0.0228 0.6290
vn -0.5446 0.0348 0.8380
vn -0.2707 0.0409 0.9618
vn 0.0144 0.0458 0.9988
vn 0.2979 0.0459 0.9535
vn 0.5630 0.0395 0.8255
vn 0.7908 0.0334 0.6112
vn 0.9456 0.0217 0.3246
vn 0.9999 0.0124 -0.0118
vn 0.9409 0.0049 -0.3387
vn 0.7787 -0.0029 -0.6274
vn 0.5529 -0.0050 -0.8332
vn 0.2752 -0.0089 -0.9613
vn 0.1157 -0.3497 -0.9297
vn 0.6078 -0.3610 -0.7073
vn 0.4209 -0.3399 0.8411
vn -0.1341 -0.3357 0.9324
vn -0.6486 -0.3556 0.6730
vn -0.9189 -0.3728 0.1293
vn -0.8071 -0.3681 -0.4615
vn -0.4022 -0.3537 -0.8445
vn -0.6429 -0.7441 -0.1818
vn -0.4456 -0.7153 -0.5384
vn -0.0115 -0.9973 -0.0722
vn -0.3069 -0.7608 0.5719
vn 0.1020 -0.7597 0.6422
vn 0.5469 -0.7386 -0.3943
vn 0.4702 -0.7669 0.4367
vn -0.5971 -0.7616 0.2519
vn -0.1116 -0.6989 -0.7064
vn 0.2526 -0.7087 -0.6588
vn 0.1870 -0.7295 0.6579
vn 0.0601 -0.7256 0.6855
vn 0.6147 -0.7634 -0.1984
vn 0.6376 -0.7703 -0.0121
vn -0.6325 -0.7498 -0.1941
vn -0.5676 -0.7473 -0.3455
vn -0.1105 -0.7244 0.6805
vn -0.3451 -0.7310 0.5887
vn 0.6067 -0.7682 0.2044
vn 0.5014 -0.7513 0.4291
vn 0.1155 -0.7562 -0.6441
vn -0.4309 -0.7450 -0.5091
vn -0.2316 -0.7526 -0.6164
vn -0.5555 -0.7364 0.3863
vn -0.6545 -0.7416 0.1470
vn 0.3350 -0.7372 0.5867
vn -0.6643 -0.7460 -0.0472
vn -0.0529 -0.7598 -0.6480
vn 0.7936 0.1655 0.5856
vn 0.9494 0.1576 0.2716
vn 0.6247 0.7688 0.1365
vn 0.5393 0.7722 0.3360
vn -0.3487 0.8320 -0.4315
vn -0.4640 0.8295 -0.3108
vn -0.1644 0.9773 -0.1334
vn -0.1305 0.9778 -0.1641
vn -0.9456 0.2370 0.2227
vn -0.7989 0.2396 0.5517
vn -0.4721 0.8241 0.3130
vn -0.5513 0.8254 0.1217
vn 0.9841 0.1757 -0.0243
vn 0.6206 0.7837 -0.0271
vn -0.5181 0.2510 0.8176
vn -0.3189 0.8281 0.4610
vn -0.1019 0.2197 -0.9702
vn -0.3469 0.2327 -0.9086
vn -0.2121 0.8315 -0.5134
vn -0.0877 0.8264 -0.5563
vn 0.9347 0.1908 -0.2997
vn 0.5702 0.8020 -0.1779
vn -0.2084 0.2629 0.9421
vn -0.1481 0.8290 0.5393
vn -0.6132 0.2385 -0.7531
vn 0.7803 0.1925 -0.5951
vn 0.4637 0.8141 -0.3495
vn 0.0509 0.2559 0.9654
vn 0.0133 0.8192 0.5733
vn -0.8172 0.2368 -0.5255
vn 0.4924 0.1930 -0.8487
vn 0.2767 0.8197 -0.5016
vn 0.2824 0.2303 0.9312
vn 0.1796 0.8056 0.5646
vn -0.9242 0.2351 -0.3009
vn -0.5314 0.8264 -0.1860
vn 0.1624 0.2030 -0.9656
vn 0.0682 0.8219 -0.5655
vn 0.5378 0.1956 0.8200
vn 0.3655 0.7892 0.4935
vn -0.9697 0.2349 -0.0666
vn -0.5633 0.8248 -0.0488
vn 0.1989 0.9782 0.0597
vn 0.2248 0.9744 -0.0029
vn -0.0296 0.9986 -0.0438
vn -0.0260 0.9834 0.1798
vn -0.0902 0.9825 0.1630
vn -0.0965 0.9780 -0.1850
vn -0.1416 0.9815 0.1292
vn 0.1915 0.9786 -0.0749
vn 0.2170 0.9753 -0.0419
vn -0.0594 0.9791 -0.1946
vn -0.1798 0.9804 0.0807
vn -0.2024 0.9791 0.0203
vn 0.1444 0.9824 -0.1189
vn -0.2059 0.9778 -0.0400
vn 0.0726 0.9838 -0.1641
vn 0.1339 0.9826 0.1285
vn -0.1914 0.9772 -0.0921
vn -0.0031 0.9818 -0.1901
vn 0.0513 0.9839 0.1711
usemtl Mushroom_1
s 1
f 21/1/1 2/2/2 22/3/3
f 22/3/3 2/2/2 4/4/4
f 22/3/3 4/4/4 23/5/5
f 23/5/5 4/4/4 6/6/6
f 23/5/5 6/6/6 24/7/7
f 24/7/7 6/6/6 8/8/8
f 24/7/7 8/8/8 25/9/9
f 25/9/9 8/8/8 10/10/10
f 25/9/9 10/10/10 26/11/11
f 26/11/11 10/10/10 12/12/12
f 26/11/11 12/12/12 27/13/13
f 27/13/13 12/12/12 14/14/14
f 27/13/13 14/14/14 28/15/15
f 28/15/15 14/14/14 16/16/16
f 28/15/15 16/16/16 29/17/17
f 29/17/17 16/16/16 18/18/18
f 29/17/17 18/18/18 30/19/19
f 30/20/19 18/21/18 20/22/20
f 4/23/4 78/24/21 77/25/22
f 30/20/19 20/22/20 21/1/1
f 21/1/1 20/22/20 2/2/2
f 5/26/23 7/27/24 54/28/25
f 49/29/26 21/1/1 50/30/27
f 48/31/28 30/20/19 21/1/1 49/29/26
f 47/32/29 30/19/19 48/33/28
f 46/34/30 29/17/17 30/19/19 47/32/29
f 45/35/31 29/17/17 46/34/30
f 44/36/32 28/15/15 29/17/17 45/35/31
f 43/37/33 28/15/15 44/36/32
f 42/38/34 27/13/13 28/15/15 43/37/33
f 41/39/35 27/13/13 42/38/34
f 40/40/36 26/11/11 27/13/13 41/39/35
f 39/41/37 26/11/11 40/40/36
f 38/42/38 25/9/9 26/11/11 39/41/37
f 37/43/39 25/9/9 38/42/38
f 36/44/40 24/7/7 25/9/9 37/43/39
f 35/45/41 24/7/7 36/44/40
f 34/46/42 23/5/5 24/7/7 35/45/41
f 33/47/43 23/5/5 34/46/42
f 32/48/44 22/3/3 23/5/5 33/47/43
f 31/49/45 22/3/3 32/48/44
f 50/30/27 21/1/1 22/3/3 31/49/45
f 1/50/46 50/30/27 31/49/45
f 1/50/46 31/49/45 32/48/44 3/51/47
f 3/51/47 32/48/44 33/47/43
f 3/51/47 33/47/43 34/46/42 5/52/23
f 5/52/23 34/46/42 35/45/41
f 5/52/23 35/45/41 36/44/40 7/53/24
f 7/53/24 36/44/40 37/43/39
f 7/53/24 37/43/39 38/42/38 9/54/48
f 9/54/48 38/42/38 39/41/37
f 9/54/48 39/41/37 40/40/36 11/55/49
f 11/55/49 40/40/36 41/39/35
f 11/55/49 41/39/35 42/38/34 13/56/50
f 13/56/50 42/38/34 43/37/33
f 13/56/50 43/37/33 44/36/32 15/57/51
f 15/57/51 44/36/32 45/35/31
f 15/57/51 45/35/31 46/34/30 17/58/52
f 17/58/52 46/34/30 47/32/29
f 17/58/52 47/32/29 48/33/28 19/59/53
f 19/60/53 48/31/28 49/29/26
f 19/60/53 49/29/26 50/30/27 1/50/46
f 59/61/54 60/62/55 61/63/56
f 11/64/49 57/65/57 56/66/58
f 15/67/51 17/68/52 59/61/54
f 3/69/47 5/26/23 53/70/59
f 9/71/48 56/66/58 55/72/60
f 13/73/50 15/67/51 58/74/61
f 19/75/53 51/76/62 60/62/55
f 1/77/46 3/69/47 52/78/63
f 7/27/24 55/72/60 54/28/25
f 11/64/49 13/73/50 57/65/57
f 17/68/52 60/62/55 59/61/54
f 5/26/23 54/28/25 53/70/59
f 9/71/48 11/64/49 56/66/58
f 15/67/51 59/61/54 58/74/61
f 19/75/53 1/77/46 51/76/62
f 3/69/47 53/70/59 52/78/63
f 7/27/24 9/71/48 55/72/60
f 1/77/46 52/78/63 51/76/62
f 13/73/50 58/74/61 57/65/57
f 17/68/52 19/75/53 60/62/55
f 12/79/12 10/80/10 71/81/64 70/82/65
f 52/78/63 53/70/59 61/63/56
f 56/66/58 57/65/57 61/63/56
f 60/62/55 51/76/62 61/63/56
f 53/70/59 54/28/25 61/63/56
f 57/65/57 58/74/61 61/63/56
f 54/28/25 55/72/60 61/63/56
f 58/74/61 59/61/54 61/63/56
f 51/76/62 52/78/63 61/63/56
f 55/72/60 56/66/58 61/63/56
f 6/83/6 76/84/66 75/85/67
f 18/86/18 64/87/68 63/88/69
f 14/89/14 12/79/12 69/90/70 68/91/71
f 8/92/8 74/93/72 73/94/73
f 4/23/4 2/95/2 79/96/74 78/24/21
f 20/97/20 62/98/75 81/99/76
f 16/100/16 14/89/14 67/101/77 66/102/78
f 10/80/10 72/103/79 71/81/64
f 6/83/6 4/23/4 77/25/22 76/84/66
f 18/86/18 16/100/16 65/104/80 64/87/68
f 12/79/12 70/82/65 69/90/70
f 8/92/8 6/83/6 75/85/67 74/93/72
f 20/97/20 18/86/18 63/88/69 62/98/75
f 14/89/14 68/91/71 67/101/77
f 2/95/2 80/105/81 79/96/74
f 10/80/10 8/92/8 73/94/73 72/103/79
f 140/106/82 141/107/83 94/108/84 93/109/85
f 16/100/16 66/102/78 65/104/80
f 2/95/2 20/97/20 81/99/76 80/105/81
f 82/110/86 83/111/87 103/112/88 102/113/89
f 138/114/90 139/115/91 87/116/92 86/117/93
f 141/107/83 137/118/94 95/119/95 94/108/84
f 139/115/91 136/120/96 88/121/97 87/116/92
f 134/122/98 135/123/99 101/124/100 100/125/101
f 137/118/94 133/126/102 96/127/103 95/119/95
f 136/120/96 132/128/104 89/129/105 88/121/97
f 135/123/99 131/130/106 82/110/86 101/124/100
f 133/126/102 130/131/107 97/132/108 96/127/103
f 132/128/104 129/133/109 90/134/110 89/129/105
f 131/130/106 128/135/111 83/111/87 82/110/86
f 130/131/107 127/136/112 98/137/113 97/132/108
f 129/133/109 126/138/114 91/139/115 90/134/110
f 128/135/111 125/140/116 84/141/117 83/111/87
f 127/136/112 124/142/118 99/143/119 98/137/113
f 126/138/114 123/144/120 92/145/121 91/139/115
f 125/140/116 142/146/122 85/147/123 84/141/117
f 124/142/118 134/122/98 100/125/101 99/143/119
f 123/144/120 140/106/82 93/109/85 92/145/121
f 142/146/122 138/114/90 86/117/93 85/147/123
f 113/148/124 114/149/125 122/150/126
f 89/129/105 90/134/110 110/151/127 109/152/128
f 101/124/100 82/110/86 102/113/89 121/153/129
f 88/121/97 89/129/105 109/152/128 108/154/130
f 95/119/95 96/127/103 116/155/131 115/156/132
f 100/125/101 101/124/100 121/153/129 120/157/133
f 87/116/92 88/121/97 108/154/130 107/158/134
f 94/108/84 95/119/95 115/156/132 114/149/125
f 86/117/93 87/116/92 107/158/134 106/159/135
f 96/127/103 97/132/108 117/160/136 116/155/131
f 93/109/85 94/108/84 114/149/125 113/148/124
f 85/147/123 86/117/93 106/159/135 105/161/137
f 97/132/108 98/137/113 118/162/138 117/160/136
f 92/145/121 93/109/85 113/148/124 112/163/139
f 84/141/117 85/147/123 105/161/137 104/164/140
f 98/137/113 99/143/119 119/165/141 118/162/138
f 91/139/115 92/145/121 112/163/139 111/166/142
f 83/111/87 84/141/117 104/164/140 103/112/88
f 99/143/119 100/125/101 120/157/133 119/165/141
f 90/134/110 91/139/115 111/166/142 110/151/127
f 74/167/72 75/168/67 137/118/94 141/107/83
f 117/160/136 118/162/138 122/150/126
f 105/161/137 106/159/135 122/150/126
f 112/163/139 113/148/124 122/150/126
f 118/162/138 119/165/141 122/150/126
f 104/164/140 105/161/137 122/150/126
f 111/166/142 112/163/139 122/150/126
f 119/165/141 120/157/133 122/150/126
f 103/112/88 104/164/140 122/150/126
f 110/151/127 111/166/142 122/150/126
f 102/113/89 103/112/88 122/150/126
f 109/152/128 110/151/127 122/150/126
f 121/153/129 102/113/89 122/150/126
f 108/154/130 109/152/128 122/150/126
f 115/156/132 116/155/131 122/150/126
f 120/157/133 121/153/129 122/150/126
f 107/158/134 108/154/130 122/150/126
f 114/149/125 115/156/132 122/150/126
f 116/155/131 117/160/136 122/150/126
f 106/159/135 107/158/134 122/150/126
f 67/169/77 68/170/71 136/120/96 139/115/91
f 80/171/81 81/172/76 135/123/99 134/122/98
f 75/168/67 76/173/66 133/126/102 137/118/94
f 68/170/71 69/174/70 132/128/104 136/120/96
f 81/172/76 62/175/75 131/130/106 135/123/99
f 76/173/66 77/176/22 130/131/107 133/126/102
f 69/174/70 70/177/65 129/133/109 132/128/104
f 62/175/75 63/178/69 128/135/111 131/130/106
f 77/176/22 78/179/21 127/136/112 130/131/107
f 70/177/65 71/180/64 126/138/114 129/133/109
f 63/178/69 64/181/68 125/140/116 128/135/111
f 78/179/21 79/182/74 124/142/118 127/136/112
f 71/180/64 72/183/79 123/144/120 126/138/114
f 64/181/68 65/184/80 142/146/122 125/140/116
f 79/182/74 80/171/81 134/122/98 124/142/118
f 72/183/79 73/185/73 140/106/82 123/144/120
f 65/184/80 66/186/78 138/114/90 142/146/122
f 66/186/78 67/169/77 139/115/91 138/114/90
f 73/185/73 74/167/72 141/107/83 140/106/82
